<svg xmlns="http://www.w3.org/2000/svg" viewBox="0 0 24 24" fill="none" stroke="currentColor" stroke-width="2" stroke-linecap="round" stroke-linejoin="round"><path fill="currentColor" stroke="none" fill-rule="evenodd" d="M5.6 4.8h12.8A2.6 2.6 0 0 1 21 7.4v11a2.6 2.6 0 0 1-2.6 2.6H5.6A2.6 2.6 0 0 1 3 18.4v-11a2.6 2.6 0 0 1 2.6-2.6ZM3 8.6h18v2H3zM7.93 15.27 10.9 18.24 16.27 12.87 14.93 11.53 10.9 15.56 9.27 13.93Z"/><rect x="3" y="4.8" width="18" height="16.2" rx="2.6"/><path d="M8 3v3.6"/><path d="M16 3v3.6"/></svg>
